HIERARCHY
ROOT Hips
{
	OFFSET -60.712399 36.247601 12.323000 
	CHANNELS 6 Xposition Yposition Zposition Zrotation Xrotation Yrotation
	JOINT LeftHip
	{
		OFFSET 3.430000 0.000000 0.000000 
		CHANNELS 6 Xposition Yposition Zposition Zrotation Xrotation Yrotation
		JOINT LeftKnee
		{
			OFFSET 0.000000 -18.469999 0.000000 
			CHANNELS 6 Xposition Yposition Zposition Zrotation Xrotation Yrotation
			JOINT LeftAnkle
			{
				OFFSET 0.000000 -17.950001 0.000000 
				CHANNELS 6 Xposition Yposition Zposition Zrotation Xrotation Yrotation
				End Site
				{
					OFFSET 0.000000 -3.120000 0.000000 
				}
			}
		}
	}
	JOINT RightHip
	{
		OFFSET -3.430000 0.000000 0.000000 
		CHANNELS 6 Xposition Yposition Zposition Zrotation Xrotation Yrotation
		JOINT RightKnee
		{
			OFFSET 0.000000 -18.469999 0.000000 
			CHANNELS 6 Xposition Yposition Zposition Zrotation Xrotation Yrotation
			JOINT RightAnkle
			{
				OFFSET 0.000000 -17.950001 0.000000 
				CHANNELS 6 Xposition Yposition Zposition Zrotation Xrotation Yrotation
				End Site
				{
					OFFSET 0.000000 -3.120000 0.000000 
				}
			}
		}
	}
	JOINT Chest
	{
		OFFSET 0.000000 4.570000 0.000000 
		CHANNELS 6 Xposition Yposition Zposition Zrotation Xrotation Yrotation
		JOINT CS_BVH
		{
			OFFSET 0.000000 6.570000 0.000000 
			CHANNELS 6 Xposition Yposition Zposition Zrotation Xrotation Yrotation
			JOINT LeftCollar
			{
				OFFSET 1.060000 4.190000 1.760000 
				CHANNELS 6 Xposition Yposition Zposition Zrotation Xrotation Yrotation
				JOINT LeftShoulder
				{
					OFFSET 5.810000 0.000000 0.000000 
					CHANNELS 6 Xposition Yposition Zposition Zrotation Xrotation Yrotation
					JOINT LeftElbow
					{
						OFFSET 0.000000 -12.080000 0.000000 
						CHANNELS 6 Xposition Yposition Zposition Zrotation Xrotation Yrotation
						JOINT LeftWrist
						{
							OFFSET 0.000000 -9.820000 0.000000 
							CHANNELS 6 Xposition Yposition Zposition Zrotation Xrotation Yrotation
							End Site
							{
								OFFSET 0.000000 -7.370000 0.000000 
							}
						}
					}
				}
			}
			JOINT RightCollar
			{
				OFFSET -1.060000 4.190000 1.760000 
				CHANNELS 6 Xposition Yposition Zposition Zrotation Xrotation Yrotation
				JOINT RightShoulder
				{
					OFFSET -6.060000 0.000000 0.000000 
					CHANNELS 6 Xposition Yposition Zposition Zrotation Xrotation Yrotation
					JOINT RightElbow
					{
						OFFSET 0.000000 -11.080000 0.000000 
						CHANNELS 6 Xposition Yposition Zposition Zrotation Xrotation Yrotation
						JOINT RightWrist
						{
							OFFSET 0.000000 -9.820000 0.000000 
							CHANNELS 6 Xposition Yposition Zposition Zrotation Xrotation Yrotation
							End Site
							{
								OFFSET 0.000000 -7.140010 0.000000 
							}
						}
					}
				}
			}
			JOINT Neck
			{
				OFFSET 0.000000 4.050000 0.000000 
				CHANNELS 6 Xposition Yposition Zposition Zrotation Xrotation Yrotation
				JOINT Head
				{
					OFFSET 0.000000 5.190000 0.000000 
					CHANNELS 6 Xposition Yposition Zposition Zrotation Xrotation Yrotation
					End Site
					{
						OFFSET 0.000000 4.140010 0.000000 
					}
				}
			}
		}
	}
}
MOTION
Frames: 4
Frame Time: 0.033333
-45.890003 38.238804 22.442801 -2.180494 3.471314 138.289001 3.430000 -0.000000 0.000000 13.559300 -2.417320 9.774140 0.000000 -18.469999 -0.000000 -9.405770 40.422699 -12.825800 0.000000 -17.950001 -0.000000 -4.770510 -11.874700 -0.416311 -3.430000 0.000000 0.000000 -7.819650 -22.077999 -4.093010 0.000000 -18.469999 -0.000000 5.240030 36.516399 -10.756500 0.000000 -17.950001 -0.000000 -0.084274 -13.323800 0.358232 -0.000000 4.570000 0.000000 -1.893870 6.859390 0.045504 -0.000000 6.570000 0.000000 -0.769928 13.717400 -0.084416 1.060000 4.190000 1.760000 -10.687700 19.589500 -8.213610 5.810000 -0.000000 0.000000 27.811800 1.843090 -10.449200 -0.000000 -12.080000 -0.000000 11.531100 -71.140503 -23.111000 -0.000000 -9.820000 0.000000 0.969352 18.668900 2.393660 -1.060000 4.190000 1.760000 23.018900 20.327900 9.631160 -6.060000 0.000000 0.000000 -53.237999 14.622100 8.169420 -0.000000 -11.080000 -0.000000 29.881100 -56.796501 52.848900 -0.000000 -9.820000 -0.000000 -11.243000 12.726800 1.247570 -0.000000 4.050000 0.000000 -0.463295 -0.325101 -1.484100 -0.000000 5.190000 0.000000 -5.397630 -20.645201 -0.478395 
-47.169697 37.907001 23.132799 -2.710680 2.423489 139.008987 3.430000 -0.000000 0.000000 12.601100 2.105020 7.556390 0.000000 -18.469999 -0.000000 -7.835530 32.073502 -17.090500 0.000000 -17.950001 -0.000000 -2.333620 -17.801100 -0.631589 -3.430000 0.000000 0.000000 -8.920130 -26.104200 -4.837240 0.000000 -18.469999 -0.000000 6.002580 37.897202 -11.365300 0.000000 -17.950001 -0.000000 0.050735 -11.654200 0.303295 -0.000000 4.570000 0.000000 -1.647300 6.716160 -0.748036 -0.000000 6.570000 0.000000 -0.694302 13.436700 -1.573720 1.060000 4.190000 1.760000 -10.488600 19.597700 -10.213800 5.810000 -0.000000 0.000000 28.244499 0.754685 -9.172710 -0.000000 -12.080000 -0.000000 12.159000 -72.242599 -22.038900 -0.000000 -9.820000 0.000000 2.830690 18.874100 2.083710 -1.060000 4.190000 1.760000 22.636600 19.208599 8.212840 -6.060000 0.000000 0.000000 -51.464699 14.462000 9.381560 -0.000000 -11.080000 -0.000000 30.453100 -57.063301 52.029701 -0.000000 -9.820000 -0.000000 -10.050000 12.984800 1.105270 -0.000000 4.050000 0.000000 -0.727307 -0.696585 -2.283240 -0.000000 5.190000 0.000000 -3.698570 -21.205601 0.555543 
-48.478397 37.538601 23.946600 -2.415020 1.161940 138.843994 3.430000 -0.000000 0.000000 11.919400 5.135080 7.577410 0.000000 -18.469999 -0.000000 -6.441280 23.096800 -16.037100 0.000000 -17.950001 -0.000000 -2.149430 -24.344601 -0.849159 -3.430000 0.000000 0.000000 -9.258010 -29.558701 -5.330750 0.000000 -18.469999 -0.000000 7.294010 38.227901 -11.292700 0.000000 -17.950001 -0.000000 -0.476306 -9.262980 0.213797 -0.000000 4.570000 0.000000 -1.412190 6.835730 -1.088770 -0.000000 6.570000 0.000000 -0.465410 13.672300 -2.202130 1.060000 4.190000 1.760000 -9.914000 20.034500 -11.229600 5.810000 -0.000000 0.000000 29.417200 -1.455310 -8.760010 -0.000000 -12.080000 -0.000000 12.923100 -73.301804 -21.835100 -0.000000 -9.820000 0.000000 2.461060 18.901400 2.152620 -1.060000 4.190000 1.760000 23.363800 19.197500 7.547780 -6.060000 0.000000 0.000000 -51.013401 14.773500 9.291920 -0.000000 -11.080000 -0.000000 30.804100 -57.801899 50.687801 -0.000000 -9.820000 -0.000000 -11.728000 13.396900 1.369400 -0.000000 4.050000 0.000000 -0.377877 -0.811450 -2.593880 -0.000000 5.190000 0.000000 -2.528740 -22.051201 1.147860 
-49.747501 37.309101 24.934698 -2.974300 0.003508 136.880005 3.430000 -0.000000 0.000000 11.383300 0.446401 8.785880 0.000000 -18.469999 -0.000000 -6.622690 25.954399 -9.874810 0.000000 -17.950001 -0.000000 -2.925590 -27.471399 -1.084890 -3.430000 0.000000 0.000000 -9.710260 -32.853401 -5.582500 0.000000 -18.469999 -0.000000 8.848760 36.480000 -8.457250 0.000000 -17.950001 -0.000000 -2.138500 -5.580690 0.135178 -0.000000 4.570000 0.000000 -1.788240 7.052910 -0.615396 -0.000000 6.570000 0.000000 -0.885476 14.102100 -1.269630 1.060000 4.190000 1.760000 -11.036300 20.467699 -10.229300 5.810000 -0.000000 0.000000 32.133099 -5.615170 -8.607500 -0.000000 -12.080000 -0.000000 12.881900 -73.475403 -24.326000 -0.000000 -9.820000 0.000000 0.556475 18.599400 2.458580 -1.060000 4.190000 1.760000 22.680799 20.056200 7.906850 -6.060000 0.000000 0.000000 -49.442600 14.173400 7.263960 -0.000000 -11.080000 -0.000000 30.241699 -58.307999 48.547901 -0.000000 -9.820000 -0.000000 -13.619300 14.111100 1.707240 -0.000000 4.050000 0.000000 -0.341521 -1.662660 -1.794100 -0.000000 5.190000 0.000000 -2.684020 -22.374901 1.123450 
